<svg xmlns="http://www.w3.org/2000/svg" viewBox="0 0 64 64" role="img" aria-labelledby="title">
  <title id="title">JB Systems in Motion monogram</title>
  <defs><linearGradient id="g" x1="0" y1="0" x2="1" y2="1"><stop stop-color="#7c5cff"/><stop offset="1" stop-color="#00c2a8"/></linearGradient></defs>
  <rect width="64" height="64" rx="16" fill="#070a12"/>
  <path d="M18 16h10v25c0 8-4 12-12 12h-3v-8h2c2 0 3-1 3-4V16Zm15 0h10c8 0 13 3 13 10 0 4-2 7-5 8 4 1 6 4 6 8 0 8-6 11-14 11H33V16Zm9 8v7h2c2 0 3-1 3-4s-1-3-3-3h-2Zm0 14v7h2c3 0 4-1 4-4 0-2-1-3-4-3h-2Z" fill="url(#g)"/>
</svg>
